  0
SECTION
  2
HEADER
  9
$ACADVER
  1
AC1024
  9
$ACADMAINTVER
 70
6
  9
$DWGCODEPAGE
  3
ANSI_1252
  9
$LASTSAVEDBY
  1
ezdxf
  9
$INSBASE
 10
0.0
 20
0.0
 30
0.0
  9
$EXTMIN
 10
1e+20
 20
1e+20
 30
1e+20
  9
$EXTMAX
 10
-1e+20
 20
-1e+20
 30
-1e+20
  9
$LIMMIN
 10
0.0
 20
0.0
  9
$LIMMAX
 10
420.0
 20
297.0
  9
$ORTHOMODE
 70
0
  9
$REGENMODE
 70
1
  9
$FILLMODE
 70
1
  9
$QTEXTMODE
 70
0
  9
$MIRRTEXT
 70
1
  9
$LTSCALE
 40
1.0
  9
$ATTMODE
 70
1
  9
$TEXTSIZE
 40
2.5
  9
$TRACEWID
 40
1.0
  9
$TEXTSTYLE
  7
Standard
  9
$CLAYER
  8
0
  9
$CELTYPE
  6
ByLayer
  9
$CECOLOR
 62
256
  9
$CELTSCALE
 40
1.0
  9
$DISPSILH
 70
0
  9
$DIMSCALE
 40
1.0
  9
$DIMASZ
 40
2.5
  9
$DIMEXO
 40
0.625
  9
$DIMDLI
 40
3.75
  9
$DIMRND
 40
0.0
  9
$DIMDLE
 40
0.0
  9
$DIMEXE
 40
1.25
  9
$DIMTP
 40
0.0
  9
$DIMTM
 40
0.0
  9
$DIMTXT
 40
2.5
  9
$DIMCEN
 40
2.5
  9
$DIMTSZ
 40
0.0
  9
$DIMTOL
 70
0
  9
$DIMLIM
 70
0
  9
$DIMTIH
 70
0
  9
$DIMTOH
 70
0
  9
$DIMSE1
 70
0
  9
$DIMSE2
 70
0
  9
$DIMTAD
 70
1
  9
$DIMZIN
 70
8
  9
$DIMBLK
  1

  9
$DIMASO
 70
1
  9
$DIMSHO
 70
1
  9
$DIMPOST
  1

  9
$DIMAPOST
  1

  9
$DIMALT
 70
0
  9
$DIMALTD
 70
3
  9
$DIMALTF
 40
0.03937007874
  9
$DIMLFAC
 40
1.0
  9
$DIMTOFL
 70
1
  9
$DIMTVP
 40
0.0
  9
$DIMTIX
 70
0
  9
$DIMSOXD
 70
0
  9
$DIMSAH
 70
0
  9
$DIMBLK1
  1

  9
$DIMBLK2
  1

  9
$DIMSTYLE
  2
ISO-25
  9
$DIMCLRD
 70
0
  9
$DIMCLRE
 70
0
  9
$DIMCLRT
 70
0
  9
$DIMTFAC
 40
1.0
  9
$DIMGAP
 40
0.625
  9
$DIMJUST
 70
0
  9
$DIMSD1
 70
0
  9
$DIMSD2
 70
0
  9
$DIMTOLJ
 70
0
  9
$DIMTZIN
 70
8
  9
$DIMALTZ
 70
0
  9
$DIMALTTZ
 70
0
  9
$DIMUPT
 70
0
  9
$DIMDEC
 70
2
  9
$DIMTDEC
 70
2
  9
$DIMALTU
 70
2
  9
$DIMALTTD
 70
3
  9
$DIMTXSTY
  7
Standard
  9
$DIMAUNIT
 70
0
  9
$DIMADEC
 70
0
  9
$DIMALTRND
 40
0.0
  9
$DIMAZIN
 70
0
  9
$DIMDSEP
 70
44
  9
$DIMATFIT
 70
3
  9
$DIMFRAC
 70
0
  9
$DIMLDRBLK
  1

  9
$DIMLUNIT
 70
2
  9
$DIMLWD
 70
-2
  9
$DIMLWE
 70
-2
  9
$DIMTMOVE
 70
0
  9
$DIMFXL
 40
1.0
  9
$DIMFXLON
 70
0
  9
$DIMJOGANG
 40
0.785398163397
  9
$DIMTFILL
 70
0
  9
$DIMTFILLCLR
 70
0
  9
$DIMARCSYM
 70
0
  9
$DIMLTYPE
  6

  9
$DIMLTEX1
  6

  9
$DIMLTEX2
  6

  9
$DIMTXTDIRECTION
 70
0
  9
$LUNITS
 70
2
  9
$LUPREC
 70
4
  9
$SKETCHINC
 40
1.0
  9
$FILLETRAD
 40
10.0
  9
$AUNITS
 70
0
  9
$AUPREC
 70
2
  9
$MENU
  1
.
  9
$ELEVATION
 40
0.0
  9
$PELEVATION
 40
0.0
  9
$THICKNESS
 40
0.0
  9
$LIMCHECK
 70
0
  9
$CHAMFERA
 40
0.0
  9
$CHAMFERB
 40
0.0
  9
$CHAMFERC
 40
0.0
  9
$CHAMFERD
 40
0.0
  9
$SKPOLY
 70
0
  9
$TDCREATE
 40
2459551.7436226853
  9
$TDUCREATE
 40
2458532.153996898
  9
$TDUPDATE
 40
2459551.7436226853
  9
$TDUUPDATE
 40
2458532.1544311
  9
$TDINDWG
 40
0.0
  9
$TDUSRTIMER
 40
0.0
  9
$USRTIMER
 70
1
  9
$ANGBASE
 50
0.0
  9
$ANGDIR
 70
0
  9
$PDMODE
 70
0
  9
$PDSIZE
 40
0.0
  9
$PLINEWID
 40
0.0
  9
$SPLFRAME
 70
0
  9
$SPLINETYPE
 70
6
  9
$SPLINESEGS
 70
8
  9
$HANDSEED
  5
113
  9
$SURFTAB1
 70
6
  9
$SURFTAB2
 70
6
  9
$SURFTYPE
 70
6
  9
$SURFU
 70
6
  9
$SURFV
 70
6
  9
$UCSBASE
  2

  9
$UCSNAME
  2

  9
$UCSORG
 10
0.0
 20
0.0
 30
0.0
  9
$UCSXDIR
 10
1.0
 20
0.0
 30
0.0
  9
$UCSYDIR
 10
0.0
 20
1.0
 30
0.0
  9
$UCSORTHOREF
  2

  9
$UCSORTHOVIEW
 70
0
  9
$UCSORGTOP
 10
0.0
 20
0.0
 30
0.0
  9
$UCSORGBOTTOM
 10
0.0
 20
0.0
 30
0.0
  9
$UCSORGLEFT
 10
0.0
 20
0.0
 30
0.0
  9
$UCSORGRIGHT
 10
0.0
 20
0.0
 30
0.0
  9
$UCSORGFRONT
 10
0.0
 20
0.0
 30
0.0
  9
$UCSORGBACK
 10
0.0
 20
0.0
 30
0.0
  9
$PUCSBASE
  2

  9
$PUCSNAME
  2

  9
$PUCSORG
 10
0.0
 20
0.0
 30
0.0
  9
$PUCSXDIR
 10
1.0
 20
0.0
 30
0.0
  9
$PUCSYDIR
 10
0.0
 20
1.0
 30
0.0
  9
$PUCSORTHOREF
  2

  9
$PUCSORTHOVIEW
 70
0
  9
$PUCSORGTOP
 10
0.0
 20
0.0
 30
0.0
  9
$PUCSORGBOTTOM
 10
0.0
 20
0.0
 30
0.0
  9
$PUCSORGLEFT
 10
0.0
 20
0.0
 30
0.0
  9
$PUCSORGRIGHT
 10
0.0
 20
0.0
 30
0.0
  9
$PUCSORGFRONT
 10
0.0
 20
0.0
 30
0.0
  9
$PUCSORGBACK
 10
0.0
 20
0.0
 30
0.0
  9
$USERI1
 70
0
  9
$USERI2
 70
0
  9
$USERI3
 70
0
  9
$USERI4
 70
0
  9
$USERI5
 70
0
  9
$USERR1
 40
0.0
  9
$USERR2
 40
0.0
  9
$USERR3
 40
0.0
  9
$USERR4
 40
0.0
  9
$USERR5
 40
0.0
  9
$WORLDVIEW
 70
1
  9
$SHADEDGE
 70
3
  9
$SHADEDIF
 70
70
  9
$TILEMODE
 70
1
  9
$MAXACTVP
 70
64
  9
$PINSBASE
 10
0.0
 20
0.0
 30
0.0
  9
$PLIMCHECK
 70
0
  9
$PEXTMIN
 10
1e+20
 20
1e+20
 30
1e+20
  9
$PEXTMAX
 10
-1e+20
 20
-1e+20
 30
-1e+20
  9
$PLIMMIN
 10
0.0
 20
0.0
  9
$PLIMMAX
 10
420.0
 20
297.0
  9
$UNITMODE
 70
0
  9
$VISRETAIN
 70
1
  9
$PLINEGEN
 70
0
  9
$PSLTSCALE
 70
1
  9
$TREEDEPTH
 70
3020
  9
$CMLSTYLE
  2
Standard
  9
$CMLJUST
 70
0
  9
$CMLSCALE
 40
20.0
  9
$PROXYGRAPHICS
 70
1
  9
$MEASUREMENT
 70
1
  9
$CELWEIGHT
370
-1
  9
$ENDCAPS
280
0
  9
$JOINSTYLE
280
0
  9
$LWDISPLAY
290
0
  9
$INSUNITS
 70
6
  9
$HYPERLINKBASE
  1

  9
$STYLESHEET
  1

  9
$XEDIT
290
1
  9
$CEPSNTYPE
380
0
  9
$PSTYLEMODE
290
1
  9
$FINGERPRINTGUID
  2
{DEF21C28-0E64-4DAE-B2D0-407F8C6C74BD}
  9
$VERSIONGUID
  2
{4BB3EBE2-C8A4-4326-8445-8C82A2AE525F}
  9
$EXTNAMES
290
1
  9
$PSVPSCALE
 40
0.0
  9
$OLESTARTUP
290
0
  9
$SORTENTS
280
127
  9
$INDEXCTL
280
0
  9
$HIDETEXT
280
1
  9
$XCLIPFRAME
280
0
  9
$HALOGAP
280
0
  9
$OBSCOLOR
 70
257
  9
$OBSLTYPE
280
0
  9
$INTERSECTIONDISPLAY
280
0
  9
$INTERSECTIONCOLOR
 70
257
  9
$DIMASSOC
280
2
  9
$PROJECTNAME
  1

  9
$CAMERADISPLAY
290
0
  9
$LENSLENGTH
 40
50.0
  9
$CAMERAHEIGHT
 40
0.0
  9
$STEPSPERSEC
 40
24.0
  9
$STEPSIZE
 40
100.0
  9
$3DDWFPREC
 40
2.0
  9
$PSOLWIDTH
 40
0.005
  9
$PSOLHEIGHT
 40
0.08
  9
$LOFTANG1
 40
1.570796326795
  9
$LOFTANG2
 40
1.570796326795
  9
$LOFTMAG1
 40
0.0
  9
$LOFTMAG2
 40
0.0
  9
$LOFTPARAM
 70
7
  9
$LOFTNORMALS
280
1
  9
$LATITUDE
 40
37.795
  9
$LONGITUDE
 40
-122.394
  9
$NORTHDIRECTION
 40
0.0
  9
$TIMEZONE
 70
-8000
  9
$LIGHTGLYPHDISPLAY
280
1
  9
$TILEMODELIGHTSYNCH
280
1
  9
$CMATERIAL
347
20
  9
$SOLIDHIST
280
0
  9
$SHOWHIST
280
1
  9
$DWFFRAME
280
2
  9
$DGNFRAME
280
2
  9
$REALWORLDSCALE
290
1
  9
$INTERFERECOLOR
 62
256
  9
$CSHADOW
280
0
  9
$SHADOWPLANELOCATION
 40
0.0
  0
ENDSEC
  0
SECTION
  2
CLASSES
  0
CLASS
  1
ACDBDICTIONARYWDFLT
  2
AcDbDictionaryWithDefault
  3
ObjectDBX Classes
 90
0
 91
0
280
0
281
0
  0
CLASS
  1
SUN
  2
AcDbSun
  3
SCENEOE
 90
1153
 91
0
280
0
281
0
  0
CLASS
  1
VISUALSTYLE
  2
AcDbVisualStyle
  3
ObjectDBX Classes
 90
4095
 91
0
280
0
281
0
  0
CLASS
  1
MATERIAL
  2
AcDbMaterial
  3
ObjectDBX Classes
 90
1153
 91
0
280
0
281
0
  0
CLASS
  1
SCALE
  2
AcDbScale
  3
ObjectDBX Classes
 90
1153
 91
0
280
0
281
0
  0
CLASS
  1
TABLESTYLE
  2
AcDbTableStyle
  3
ObjectDBX Classes
 90
4095
 91
0
280
0
281
0
  0
CLASS
  1
MLEADERSTYLE
  2
AcDbMLeaderStyle
  3
ACDB_MLEADERSTYLE_CLASS
 90
4095
 91
0
280
0
281
0
  0
CLASS
  1
DICTIONARYVAR
  2
AcDbDictionaryVar
  3
ObjectDBX Classes
 90
0
 91
0
280
0
281
0
  0
CLASS
  1
CELLSTYLEMAP
  2
AcDbCellStyleMap
  3
ObjectDBX Classes
 90
1152
 91
0
280
0
281
0
  0
CLASS
  1
MENTALRAYRENDERSETTINGS
  2
AcDbMentalRayRenderSettings
  3
SCENEOE
 90
1024
 91
0
280
0
281
0
  0
CLASS
  1
ACDBDETAILVIEWSTYLE
  2
AcDbDetailViewStyle
  3
ObjectDBX Classes
 90
1025
 91
0
280
0
281
0
  0
CLASS
  1
ACDBSECTIONVIEWSTYLE
  2
AcDbSectionViewStyle
  3
ObjectDBX Classes
 90
1025
 91
0
280
0
281
0
  0
CLASS
  1
RASTERVARIABLES
  2
AcDbRasterVariables
  3
ISM
 90
0
 91
0
280
0
281
0
  0
CLASS
  1
LAYOUT
  2
AcDbLayout
  3
ObjectDBX Classes
 90
0
 91
0
280
0
281
0
  0
CLASS
  1
ACDBPLACEHOLDER
  2
AcDbPlaceHolder
  3
ObjectDBX Classes
 90
0
 91
0
280
0
281
0
  0
ENDSEC
  0
SECTION
  2
TABLES
  0
TABLE
  2
VPORT
  5
8
330
0
100
AcDbSymbolTable
 70
1
  0
VPORT
  5
23
330
8
100
AcDbSymbolTableRecord
100
AcDbViewportTableRecord
  2
*Active
 70
0
 10
0.0
 20
0.0
 11
1.0
 21
1.0
 12
344.2
 22
148.5
 13
0.0
 23
0.0
 14
0.5
 24
0.5
 15
0.5
 25
0.5
 16
0.0
 26
0.0
 36
1.0
 17
0.0
 27
0.0
 37
0.0
 40
297.0
 41
1.34
 42
50.0
 43
0.0
 44
0.0
 50
0.0
 51
0.0
 71
0
 72
1000
 73
1
 74
3
 75
0
 76
0
 77
0
 78
0
281
0
 65
0
146
0.0
  0
ENDTAB
  0
TABLE
  2
LTYPE
  5
2
330
0
100
AcDbSymbolTable
 70
3
  0
LTYPE
  5
24
330
2
100
AcDbSymbolTableRecord
100
AcDbLinetypeTableRecord
  2
ByBlock
 70
0
  3

 72
65
 73
0
 40
0.0
  0
LTYPE
  5
25
330
2
100
AcDbSymbolTableRecord
100
AcDbLinetypeTableRecord
  2
ByLayer
 70
0
  3

 72
65
 73
0
 40
0.0
  0
LTYPE
  5
26
330
2
100
AcDbSymbolTableRecord
100
AcDbLinetypeTableRecord
  2
Continuous
 70
0
  3

 72
65
 73
0
 40
0.0
  0
ENDTAB
  0
TABLE
  2
LAYER
  5
1
330
0
100
AcDbSymbolTable
 70
2
  0
LAYER
  5
27
330
1
100
AcDbSymbolTableRecord
100
AcDbLayerTableRecord
  2
0
 70
0
 62
7
  6
Continuous
370
-3
390
13
347
21
  0
LAYER
  5
28
330
1
100
AcDbSymbolTableRecord
100
AcDbLayerTableRecord
  2
Defpoints
 70
0
 62
7
  6
Continuous
290
0
370
-3
390
13
347
21
  0
ENDTAB
  0
TABLE
  2
STYLE
  5
5
330
0
100
AcDbSymbolTable
 70
1
  0
STYLE
  5
29
330
5
100
AcDbSymbolTableRecord
100
AcDbTextStyleTableRecord
  2
Standard
 70
0
 40
0.0
 41
1.0
 50
0.0
 71
0
 42
2.5
  3
txt
  4

  0
ENDTAB
  0
TABLE
  2
VIEW
  5
7
330
0
100
AcDbSymbolTable
 70
0
  0
ENDTAB
  0
TABLE
  2
UCS
  5
6
330
0
100
AcDbSymbolTable
 70
0
  0
ENDTAB
  0
TABLE
  2
APPID
  5
3
330
0
100
AcDbSymbolTable
 70
3
  0
APPID
  5
2A
330
3
100
AcDbSymbolTableRecord
100
AcDbRegAppTableRecord
  2
ACAD
 70
0
  0
APPID
  5
110
330
3
100
AcDbSymbolTableRecord
100
AcDbRegAppTableRecord
  2
HATCHBACKGROUNDCOLOR
 70
0
  0
APPID
  5
111
330
3
100
AcDbSymbolTableRecord
100
AcDbRegAppTableRecord
  2
EZDXF
 70
0
  0
ENDTAB
  0
TABLE
  2
DIMSTYLE
  5
4
330
0
100
AcDbSymbolTable
 70
1
100
AcDbDimStyleTable
  0
DIMSTYLE
105
2B
330
4
100
AcDbSymbolTableRecord
100
AcDbDimStyleTableRecord
  2
Standard
 70
0
 40
1.0
 41
2.5
 42
0.625
 43
3.75
 44
1.25
 45
0.0
 46
0.0
 47
0.0
 48
0.0
 49
2.5
140
2.5
141
2.5
142
0.0
143
0.03937007874
144
1.0
145
0.0
146
1.0
147
0.625
148
0.0
 69
0
 70
0
 71
0
 72
0
 73
0
 74
0
 75
0
 76
0
 77
1
 78
8
 79
3
170
0
171
3
172
1
173
0
174
0
175
0
176
0
177
0
178
0
179
2
271
2
272
2
273
2
274
3
275
0
276
0
277
2
278
44
279
0
280
0
281
0
282
0
283
0
284
8
285
0
286
0
288
0
289
3
290
0
371
-2
372
-2
  0
ENDTAB
  0
TABLE
  2
BLOCK_RECORD
  5
9
330
0
100
AcDbSymbolTable
 70
16
  0
BLOCK_RECORD
  5
17
330
9
100
AcDbSymbolTableRecord
100
AcDbBlockTableRecord
  2
*Model_Space
340
1A
 70
0
280
1
281
0
  0
BLOCK_RECORD
  5
1B
330
9
100
AcDbSymbolTableRecord
100
AcDbBlockTableRecord
  2
*Paper_Space
340
1E
 70
0
280
1
281
0
  0
BLOCK_RECORD
  5
31
330
9
100
AcDbSymbolTableRecord
100
AcDbBlockTableRecord
  2
*D1
340
0
 70
0
280
1
281
0
  0
BLOCK_RECORD
  5
36
330
9
100
AcDbSymbolTableRecord
100
AcDbBlockTableRecord
  2
_CLOSEDFILLED
340
0
 70
0
280
1
281
0
  0
BLOCK_RECORD
  5
46
330
9
100
AcDbSymbolTableRecord
100
AcDbBlockTableRecord
  2
*D2
340
0
 70
0
280
1
281
0
  0
BLOCK_RECORD
  5
57
330
9
100
AcDbSymbolTableRecord
100
AcDbBlockTableRecord
  2
*D3
340
0
 70
0
280
1
281
0
  0
BLOCK_RECORD
  5
68
330
9
100
AcDbSymbolTableRecord
100
AcDbBlockTableRecord
  2
*D4
340
0
 70
0
280
1
281
0
  0
BLOCK_RECORD
  5
79
330
9
100
AcDbSymbolTableRecord
100
AcDbBlockTableRecord
  2
*D5
340
0
 70
0
280
1
281
0
  0
BLOCK_RECORD
  5
8A
330
9
100
AcDbSymbolTableRecord
100
AcDbBlockTableRecord
  2
*D6
340
0
 70
0
280
1
281
0
  0
BLOCK_RECORD
  5
9B
330
9
100
AcDbSymbolTableRecord
100
AcDbBlockTableRecord
  2
*D7
340
0
 70
0
280
1
281
0
  0
BLOCK_RECORD
  5
AC
330
9
100
AcDbSymbolTableRecord
100
AcDbBlockTableRecord
  2
*D8
340
0
 70
0
280
1
281
0
  0
BLOCK_RECORD
  5
BD
330
9
100
AcDbSymbolTableRecord
100
AcDbBlockTableRecord
  2
*D9
340
0
 70
0
280
1
281
0
  0
BLOCK_RECORD
  5
CE
330
9
100
AcDbSymbolTableRecord
100
AcDbBlockTableRecord
  2
*D10
340
0
 70
0
280
1
281
0
  0
BLOCK_RECORD
  5
DF
330
9
100
AcDbSymbolTableRecord
100
AcDbBlockTableRecord
  2
*D11
340
0
 70
0
280
1
281
0
  0
BLOCK_RECORD
  5
F0
330
9
100
AcDbSymbolTableRecord
100
AcDbBlockTableRecord
  2
*D12
340
0
 70
0
280
1
281
0
  0
BLOCK_RECORD
  5
101
330
9
100
AcDbSymbolTableRecord
100
AcDbBlockTableRecord
  2
*D13
340
0
 70
0
280
1
281
0
  0
ENDTAB
  0
ENDSEC
  0
SECTION
  2
BLOCKS
  0
BLOCK
  5
18
330
17
100
AcDbEntity
  8
0
100
AcDbBlockBegin
  2
*Model_Space
 70
0
 10
0.0
 20
0.0
 30
0.0
  3
*Model_Space
  1

  0
ENDBLK
  5
19
330
17
100
AcDbEntity
  8
0
100
AcDbBlockEnd
  0
BLOCK
  5
1C
330
1B
100
AcDbEntity
  8
0
100
AcDbBlockBegin
  2
*Paper_Space
 70
0
 10
0.0
 20
0.0
 30
0.0
  3
*Paper_Space
  1

  0
ENDBLK
  5
1D
330
1B
100
AcDbEntity
  8
0
100
AcDbBlockEnd
  0
BLOCK
  5
32
330
31
100
AcDbEntity
  8
0
100
AcDbBlockBegin
  2
*D1
 70
1
 10
0.0
 20
0.0
 30
0.0
  3
*D1
  1

  0
LINE
  5
34
330
31
100
AcDbEntity
  8
0
100
AcDbLine
 10
46.999996185302734
 20
76.0
 30
0.0
 11
42.99999618530318
 21
76.00000189244747
 31
0.0
  0
LINE
  5
35
330
31
100
AcDbEntity
  8
0
100
AcDbLine
 10
47.0
 20
84.01139831542969
 30
0.0
 11
43.00000000000045
 21
84.01140020787716
 31
0.0
  0
INSERT
  5
3A
330
31
100
AcDbEntity
  8
0
100
AcDbBlockReference
  2
_CLOSEDFILLED
 10
42.99999618530318
 20
76.00000189244747
 30
0.0
 50
269.99997271811424
  0
INSERT
  5
3C
330
31
100
AcDbEntity
  8
0
100
AcDbBlockReference
  2
_CLOSEDFILLED
 10
43.00000000000045
 20
84.01140020787716
 30
0.0
 50
89.99997271811426
  0
LINE
  5
3E
330
31
100
AcDbEntity
  8
0
100
AcDbLine
 10
42.999996661461914
 20
77.00000189244736
 30
0.0
 11
42.999997140334386
 21
78.00570105016251
 31
0.0
  0
LINE
  5
3F
330
31
100
AcDbEntity
  8
0
100
AcDbLine
 10
42.999999044969314
 20
82.00570105016203
 30
0.0
 11
42.999999523841716
 21
83.01140020787727
 31
0.0
  0
MTEXT
  5
40
330
31
100
AcDbEntity
  8
0
100
AcDbMText
 10
42.999998092651815
 20
80.00570105016232
 30
0.0
 40
1.0
 71
5
  1
8,01
 50
89.99997271811426
  0
POINT
  5
41
330
31
100
AcDbEntity
  8
DEFPOINTS
100
AcDbPoint
 10
42.99999618530318
 20
76.00000189244747
 30
0.0
  0
POINT
  5
42
330
31
100
AcDbEntity
  8
DEFPOINTS
100
AcDbPoint
 10
46.999996185302734
 20
76.0
 30
0.0
  0
POINT
  5
43
330
31
100
AcDbEntity
  8
DEFPOINTS
100
AcDbPoint
 10
47.0
 20
84.01139831542969
 30
0.0
  0
ENDBLK
  5
33
330
31
100
AcDbEntity
  8
0
100
AcDbBlockEnd
  0
BLOCK
  5
37
330
36
100
AcDbEntity
  8
0
100
AcDbBlockBegin
  2
_CLOSEDFILLED
 70
0
 10
0.0
 20
0.0
 30
0.0
  3
_CLOSEDFILLED
  1

  0
SOLID
  5
39
330
36
100
AcDbEntity
  8
0
  6
BYBLOCK
 62
0
100
AcDbTrace
 10
-1.0
 20
0.1643989837240255
 30
0.0
 11
0.0
 21
0.0
 31
0.0
 12
-1.0
 22
-0.1643989837240255
 32
0.0
 13
-1.0
 23
-0.1643989837240255
 33
0.0
  0
ENDBLK
  5
38
330
36
100
AcDbEntity
  8
0
100
AcDbBlockEnd
  0
BLOCK
  5
47
330
46
100
AcDbEntity
  8
0
100
AcDbBlockBegin
  2
*D2
 70
1
 10
0.0
 20
0.0
 30
0.0
  3
*D2
  1

  0
LINE
  5
49
330
46
100
AcDbEntity
  8
0
100
AcDbLine
 10
47.0
 20
387.8746337890625
 30
0.0
 11
43.0
 21
387.8746337890625
 31
0.0
  0
LINE
  5
4A
330
46
100
AcDbEntity
  8
0
100
AcDbLine
 10
47.0
 20
396.9002990722656
 30
0.0
 11
43.0
 21
396.9002990722656
 31
0.0
  0
INSERT
  5
4B
330
46
100
AcDbEntity
  8
0
100
AcDbBlockReference
  2
_CLOSEDFILLED
 10
43.0
 20
387.8746337890625
 30
0.0
 50
270.0
  0
INSERT
  5
4D
330
46
100
AcDbEntity
  8
0
100
AcDbBlockReference
  2
_CLOSEDFILLED
 10
43.0
 20
396.9002990722656
 30
0.0
 50
90.0
  0
LINE
  5
4F
330
46
100
AcDbEntity
  8
0
100
AcDbLine
 10
43.0
 20
388.8746337890625
 30
0.0
 11
43.0
 21
390.38746643066406
 31
0.0
  0
LINE
  5
50
330
46
100
AcDbEntity
  8
0
100
AcDbLine
 10
43.0
 20
394.38746643066406
 30
0.0
 11
43.0
 21
395.9002990722656
 31
0.0
  0
MTEXT
  5
51
330
46
100
AcDbEntity
  8
0
100
AcDbMText
 10
43.0
 20
392.38746643066406
 30
0.0
 40
1.0
 71
5
  1
9,03
 50
90.0
  0
POINT
  5
52
330
46
100
AcDbEntity
  8
DEFPOINTS
100
AcDbPoint
 10
43.0
 20
387.8746337890625
 30
0.0
  0
POINT
  5
53
330
46
100
AcDbEntity
  8
DEFPOINTS
100
AcDbPoint
 10
47.0
 20
387.8746337890625
 30
0.0
  0
POINT
  5
54
330
46
100
AcDbEntity
  8
DEFPOINTS
100
AcDbPoint
 10
47.0
 20
396.9002990722656
 30
0.0
  0
ENDBLK
  5
48
330
46
100
AcDbEntity
  8
0
100
AcDbBlockEnd
  0
BLOCK
  5
58
330
57
100
AcDbEntity
  8
0
100
AcDbBlockBegin
  2
*D3
 70
1
 10
0.0
 20
0.0
 30
0.0
  3
*D3
  1

  0
LINE
  5
5A
330
57
100
AcDbEntity
  8
0
100
AcDbLine
 10
165.125
 20
175.0
 30
0.0
 11
165.12499312279928
 21
178.9999999999941
 31
0.0
  0
LINE
  5
5B
330
57
100
AcDbEntity
  8
0
100
AcDbLine
 10
174.0
 20
175.00001525878906
 30
0.0
 11
173.99999312279928
 21
179.00001525878315
 31
0.0
  0
INSERT
  5
5C
330
57
100
AcDbEntity
  8
0
100
AcDbBlockReference
  2
_CLOSEDFILLED
 10
165.12499312279928
 20
178.9999999999941
 30
0.0
 50
180.00009850864382
  0
INSERT
  5
5E
330
57
100
AcDbEntity
  8
0
100
AcDbBlockReference
  2
_CLOSEDFILLED
 10
173.99999312279928
 20
179.00001525878315
 30
0.0
 50
9.85086438040305e-05
  0
LINE
  5
60
330
57
100
AcDbEntity
  8
0
100
AcDbLine
 10
166.1249931227978
 20
179.00000171929426
 30
0.0
 11
167.56249312280252
 21
179.00000419078833
 31
0.0
  0
LINE
  5
61
330
57
100
AcDbEntity
  8
0
100
AcDbLine
 10
171.56249312279658
 20
179.00001106798905
 30
0.0
 11
172.99999312280076
 21
179.00001353948298
 31
0.0
  0
MTEXT
  5
62
330
57
100
AcDbEntity
  8
0
100
AcDbMText
 10
169.56249312279928
 20
179.00000762938862
 30
0.0
 40
1.0
 71
5
  1
8,88
 50
9.85086438040305e-05
  0
POINT
  5
63
330
57
100
AcDbEntity
  8
DEFPOINTS
100
AcDbPoint
 10
165.12499312279928
 20
178.9999999999941
 30
0.0
  0
POINT
  5
64
330
57
100
AcDbEntity
  8
DEFPOINTS
100
AcDbPoint
 10
165.125
 20
175.0
 30
0.0
  0
POINT
  5
65
330
57
100
AcDbEntity
  8
DEFPOINTS
100
AcDbPoint
 10
174.0
 20
175.00001525878906
 30
0.0
  0
ENDBLK
  5
59
330
57
100
AcDbEntity
  8
0
100
AcDbBlockEnd
  0
BLOCK
  5
69
330
68
100
AcDbEntity
  8
0
100
AcDbBlockBegin
  2
*D4
 70
1
 10
0.0
 20
0.0
 30
0.0
  3
*D4
  1

  0
LINE
  5
6B
330
68
100
AcDbEntity
  8
0
100
AcDbLine
 10
186.00001525878906
 20
175.0
 30
0.0
 11
186.00001525878906
 21
179.0
 31
0.0
  0
LINE
  5
6C
330
68
100
AcDbEntity
  8
0
100
AcDbLine
 10
193.5625
 20
175.0
 30
0.0
 11
193.5625
 21
179.0
 31
0.0
  0
INSERT
  5
6D
330
68
100
AcDbEntity
  8
0
100
AcDbBlockReference
  2
_CLOSEDFILLED
 10
186.00001525878906
 20
179.0
 30
0.0
 50
180.0
  0
INSERT
  5
6F
330
68
100
AcDbEntity
  8
0
100
AcDbBlockReference
  2
_CLOSEDFILLED
 10
193.5625
 20
179.0
 30
0.0
  0
LINE
  5
71
330
68
100
AcDbEntity
  8
0
100
AcDbLine
 10
187.00001525878906
 20
179.0
 30
0.0
 11
187.78125762939453
 21
179.0
 31
0.0
  0
LINE
  5
72
330
68
100
AcDbEntity
  8
0
100
AcDbLine
 10
191.78125762939453
 20
179.0
 30
0.0
 11
192.5625
 21
179.0
 31
0.0
  0
MTEXT
  5
73
330
68
100
AcDbEntity
  8
0
100
AcDbMText
 10
189.78125762939453
 20
179.0
 30
0.0
 40
1.0
 71
5
  1
7,56
  0
POINT
  5
74
330
68
100
AcDbEntity
  8
DEFPOINTS
100
AcDbPoint
 10
186.00001525878906
 20
179.0
 30
0.0
  0
POINT
  5
75
330
68
100
AcDbEntity
  8
DEFPOINTS
100
AcDbPoint
 10
186.00001525878906
 20
175.0
 30
0.0
  0
POINT
  5
76
330
68
100
AcDbEntity
  8
DEFPOINTS
100
AcDbPoint
 10
193.5625
 20
175.0
 30
0.0
  0
ENDBLK
  5
6A
330
68
100
AcDbEntity
  8
0
100
AcDbBlockEnd
  0
BLOCK
  5
7A
330
79
100
AcDbEntity
  8
0
100
AcDbBlockBegin
  2
*D5
 70
1
 10
0.0
 20
0.0
 30
0.0
  3
*D5
  1

  0
LINE
  5
7C
330
79
100
AcDbEntity
  8
0
100
AcDbLine
 10
76.0
 20
319.0
 30
0.0
 11
72.0
 21
319.0
 31
0.0
  0
LINE
  5
7D
330
79
100
AcDbEntity
  8
0
100
AcDbLine
 10
76.0
 20
325.0535583496094
 30
0.0
 11
72.0
 21
325.0535583496094
 31
0.0
  0
INSERT
  5
7E
330
79
100
AcDbEntity
  8
0
100
AcDbBlockReference
  2
_CLOSEDFILLED
 10
72.0
 20
319.0
 30
0.0
 50
270.0
  0
INSERT
  5
80
330
79
100
AcDbEntity
  8
0
100
AcDbBlockReference
  2
_CLOSEDFILLED
 10
72.0
 20
325.0535583496094
 30
0.0
 50
90.0
  0
LINE
  5
82
330
79
100
AcDbEntity
  8
0
100
AcDbLine
 10
72.0
 20
320.0
 30
0.0
 11
72.0
 21
320.0267791748047
 31
0.0
  0
LINE
  5
83
330
79
100
AcDbEntity
  8
0
100
AcDbLine
 10
72.0
 20
324.0267791748047
 30
0.0
 11
72.0
 21
324.0535583496094
 31
0.0
  0
MTEXT
  5
84
330
79
100
AcDbEntity
  8
0
100
AcDbMText
 10
72.0
 20
322.0267791748047
 30
0.0
 40
1.0
 71
5
  1
6,05
 50
90.0
  0
POINT
  5
85
330
79
100
AcDbEntity
  8
DEFPOINTS
100
AcDbPoint
 10
72.0
 20
319.0
 30
0.0
  0
POINT
  5
86
330
79
100
AcDbEntity
  8
DEFPOINTS
100
AcDbPoint
 10
76.0
 20
319.0
 30
0.0
  0
POINT
  5
87
330
79
100
AcDbEntity
  8
DEFPOINTS
100
AcDbPoint
 10
76.0
 20
325.0535583496094
 30
0.0
  0
ENDBLK
  5
7B
330
79
100
AcDbEntity
  8
0
100
AcDbBlockEnd
  0
BLOCK
  5
8B
330
8A
100
AcDbEntity
  8
0
100
AcDbBlockBegin
  2
*D6
 70
1
 10
0.0
 20
0.0
 30
0.0
  3
*D6
  1

  0
LINE
  5
8D
330
8A
100
AcDbEntity
  8
0
100
AcDbLine
 10
136.11392211914062
 20
241.0
 30
0.0
 11
136.11391437953202
 21
244.99999999999253
 31
0.0
  0
LINE
  5
8E
330
8A
100
AcDbEntity
  8
0
100
AcDbLine
 10
144.0
 20
241.00001525878906
 30
0.0
 11
143.9999922603914
 21
245.0000152587816
 31
0.0
  0
INSERT
  5
8F
330
8A
100
AcDbEntity
  8
0
100
AcDbBlockReference
  2
_CLOSEDFILLED
 10
136.11391437953202
 20
244.99999999999253
 30
0.0
 50
180.00011086172708
  0
INSERT
  5
91
330
8A
100
AcDbEntity
  8
0
100
AcDbBlockReference
  2
_CLOSEDFILLED
 10
143.9999922603914
 20
245.0000152587816
 30
0.0
 50
0.0001108617270801375
  0
LINE
  5
93
330
8A
100
AcDbEntity
  8
0
100
AcDbLine
 10
137.11391437953014
 20
245.00000193489467
 30
0.0
 11
138.0569533199642
 21
245.00000375958268
 31
0.0
  0
LINE
  5
94
330
8A
100
AcDbEntity
  8
0
100
AcDbLine
 10
142.05695331995673
 20
245.00001149919132
 30
0.0
 11
142.99999226039327
 21
245.00001332387944
 31
0.0
  0
MTEXT
  5
95
330
8A
100
AcDbEntity
  8
0
100
AcDbMText
 10
140.0569533199617
 20
245.00000762938706
 30
0.0
 40
1.0
 71
5
  1
7,89
 50
0.0001108617270801375
  0
POINT
  5
96
330
8A
100
AcDbEntity
  8
DEFPOINTS
100
AcDbPoint
 10
136.11391437953202
 20
244.99999999999253
 30
0.0
  0
POINT
  5
97
330
8A
100
AcDbEntity
  8
DEFPOINTS
100
AcDbPoint
 10
136.11392211914062
 20
241.0
 30
0.0
  0
POINT
  5
98
330
8A
100
AcDbEntity
  8
DEFPOINTS
100
AcDbPoint
 10
144.0
 20
241.00001525878906
 30
0.0
  0
ENDBLK
  5
8C
330
8A
100
AcDbEntity
  8
0
100
AcDbBlockEnd
  0
BLOCK
  5
9C
330
9B
100
AcDbEntity
  8
0
100
AcDbBlockBegin
  2
*D7
 70
1
 10
0.0
 20
0.0
 30
0.0
  3
*D7
  1

  0
LINE
  5
9E
330
9B
100
AcDbEntity
  8
0
100
AcDbLine
 10
173.99998474121094
 20
241.0
 30
0.0
 11
173.99998474121094
 21
245.0
 31
0.0
  0
LINE
  5
9F
330
9B
100
AcDbEntity
  8
0
100
AcDbLine
 10
180.67088317871094
 20
241.0
 30
0.0
 11
180.67088317871094
 21
245.0
 31
0.0
  0
INSERT
  5
A0
330
9B
100
AcDbEntity
  8
0
100
AcDbBlockReference
  2
_CLOSEDFILLED
 10
173.99998474121094
 20
245.0
 30
0.0
 50
180.0
  0
INSERT
  5
A2
330
9B
100
AcDbEntity
  8
0
100
AcDbBlockReference
  2
_CLOSEDFILLED
 10
180.67088317871094
 20
245.0
 30
0.0
  0
LINE
  5
A4
330
9B
100
AcDbEntity
  8
0
100
AcDbLine
 10
174.99998474121094
 20
245.0
 30
0.0
 11
175.33543395996094
 21
245.0
 31
0.0
  0
LINE
  5
A5
330
9B
100
AcDbEntity
  8
0
100
AcDbLine
 10
179.33543395996094
 20
245.0
 30
0.0
 11
179.67088317871094
 21
245.0
 31
0.0
  0
MTEXT
  5
A6
330
9B
100
AcDbEntity
  8
0
100
AcDbMText
 10
177.33543395996094
 20
245.0
 30
0.0
 40
1.0
 71
5
  1
6,67
  0
POINT
  5
A7
330
9B
100
AcDbEntity
  8
DEFPOINTS
100
AcDbPoint
 10
173.99998474121094
 20
245.0
 30
0.0
  0
POINT
  5
A8
330
9B
100
AcDbEntity
  8
DEFPOINTS
100
AcDbPoint
 10
173.99998474121094
 20
241.0
 30
0.0
  0
POINT
  5
A9
330
9B
100
AcDbEntity
  8
DEFPOINTS
100
AcDbPoint
 10
180.67088317871094
 20
241.0
 30
0.0
  0
ENDBLK
  5
9D
330
9B
100
AcDbEntity
  8
0
100
AcDbBlockEnd
  0
BLOCK
  5
AD
330
AC
100
AcDbEntity
  8
0
100
AcDbBlockBegin
  2
*D8
 70
1
 10
0.0
 20
0.0
 30
0.0
  3
*D8
  1

  0
LINE
  5
AF
330
AC
100
AcDbEntity
  8
0
100
AcDbLine
 10
132.0
 20
319.0
 30
0.0
 11
132.0
 21
323.0
 31
0.0
  0
LINE
  5
B0
330
AC
100
AcDbEntity
  8
0
100
AcDbLine
 10
141.7684326171875
 20
319.0
 30
0.0
 11
141.7684326171875
 21
323.0
 31
0.0
  0
INSERT
  5
B1
330
AC
100
AcDbEntity
  8
0
100
AcDbBlockReference
  2
_CLOSEDFILLED
 10
132.0
 20
323.0
 30
0.0
 50
180.0
  0
INSERT
  5
B3
330
AC
100
AcDbEntity
  8
0
100
AcDbBlockReference
  2
_CLOSEDFILLED
 10
141.7684326171875
 20
323.0
 30
0.0
  0
LINE
  5
B5
330
AC
100
AcDbEntity
  8
0
100
AcDbLine
 10
133.0
 20
323.0
 30
0.0
 11
134.88421630859375
 21
323.0
 31
0.0
  0
LINE
  5
B6
330
AC
100
AcDbEntity
  8
0
100
AcDbLine
 10
138.88421630859375
 20
323.0
 30
0.0
 11
140.7684326171875
 21
323.0
 31
0.0
  0
MTEXT
  5
B7
330
AC
100
AcDbEntity
  8
0
100
AcDbMText
 10
136.88421630859375
 20
323.0
 30
0.0
 40
1.0
 71
5
  1
9,77
  0
POINT
  5
B8
330
AC
100
AcDbEntity
  8
DEFPOINTS
100
AcDbPoint
 10
132.0
 20
323.0
 30
0.0
  0
POINT
  5
B9
330
AC
100
AcDbEntity
  8
DEFPOINTS
100
AcDbPoint
 10
132.0
 20
319.0
 30
0.0
  0
POINT
  5
BA
330
AC
100
AcDbEntity
  8
DEFPOINTS
100
AcDbPoint
 10
141.7684326171875
 20
319.0
 30
0.0
  0
ENDBLK
  5
AE
330
AC
100
AcDbEntity
  8
0
100
AcDbBlockEnd
  0
BLOCK
  5
BE
330
BD
100
AcDbEntity
  8
0
100
AcDbBlockBegin
  2
*D9
 70
1
 10
0.0
 20
0.0
 30
0.0
  3
*D9
  1

  0
LINE
  5
C0
330
BD
100
AcDbEntity
  8
0
100
AcDbLine
 10
123.07499694824219
 20
191.0
 30
0.0
 11
123.07499694824219
 21
195.0
 31
0.0
  0
LINE
  5
C1
330
BD
100
AcDbEntity
  8
0
100
AcDbLine
 10
132.0
 20
191.0
 30
0.0
 11
132.0
 21
195.0
 31
0.0
  0
INSERT
  5
C2
330
BD
100
AcDbEntity
  8
0
100
AcDbBlockReference
  2
_CLOSEDFILLED
 10
123.07499694824219
 20
195.0
 30
0.0
 50
180.0
  0
INSERT
  5
C4
330
BD
100
AcDbEntity
  8
0
100
AcDbBlockReference
  2
_CLOSEDFILLED
 10
132.0
 20
195.0
 30
0.0
  0
LINE
  5
C6
330
BD
100
AcDbEntity
  8
0
100
AcDbLine
 10
124.07499694824219
 20
195.0
 30
0.0
 11
125.5374984741211
 21
195.0
 31
0.0
  0
LINE
  5
C7
330
BD
100
AcDbEntity
  8
0
100
AcDbLine
 10
129.5374984741211
 20
195.0
 30
0.0
 11
131.0
 21
195.0
 31
0.0
  0
MTEXT
  5
C8
330
BD
100
AcDbEntity
  8
0
100
AcDbMText
 10
127.5374984741211
 20
195.0
 30
0.0
 40
1.0
 71
5
  1
8,93
  0
POINT
  5
C9
330
BD
100
AcDbEntity
  8
DEFPOINTS
100
AcDbPoint
 10
123.07499694824219
 20
195.0
 30
0.0
  0
POINT
  5
CA
330
BD
100
AcDbEntity
  8
DEFPOINTS
100
AcDbPoint
 10
123.07499694824219
 20
191.0
 30
0.0
  0
POINT
  5
CB
330
BD
100
AcDbEntity
  8
DEFPOINTS
100
AcDbPoint
 10
132.0
 20
191.0
 30
0.0
  0
ENDBLK
  5
BF
330
BD
100
AcDbEntity
  8
0
100
AcDbBlockEnd
  0
BLOCK
  5
CF
330
CE
100
AcDbEntity
  8
0
100
AcDbBlockBegin
  2
*D10
 70
1
 10
0.0
 20
0.0
 30
0.0
  3
*D10
  1

  0
LINE
  5
D1
330
CE
100
AcDbEntity
  8
0
100
AcDbLine
 10
144.0
 20
191.00001525878906
 30
0.0
 11
144.00000904224538
 21
195.00001525877883
 31
0.0
  0
LINE
  5
D2
330
CE
100
AcDbEntity
  8
0
100
AcDbLine
 10
150.75
 20
191.0
 30
0.0
 11
150.75000904224538
 21
194.99999999998977
 31
0.0
  0
INSERT
  5
D3
330
CE
100
AcDbEntity
  8
0
100
AcDbBlockReference
  2
_CLOSEDFILLED
 10
144.00000904224538
 20
195.00001525877883
 30
0.0
 50
179.99987047937574
  0
INSERT
  5
D5
330
CE
100
AcDbEntity
  8
0
100
AcDbBlockReference
  2
_CLOSEDFILLED
 10
150.75000904224538
 20
194.99999999998977
 30
0.0
 50
-0.00012952062426076192
  0
LINE
  5
D7
330
CE
100
AcDbEntity
  8
0
100
AcDbLine
 10
145.00000904224282
 20
195.0000129982175
 30
0.0
 11
145.37500904225035
 21
195.00001215050713
 31
0.0
  0
LINE
  5
D8
330
CE
100
AcDbEntity
  8
0
100
AcDbLine
 10
149.37500904224015
 20
195.00000310826175
 30
0.0
 11
149.75000904224794
 21
195.0000022605511
 31
0.0
  0
MTEXT
  5
D9
330
CE
100
AcDbEntity
  8
0
100
AcDbMText
 10
147.37500904224538
 20
195.0000076293843
 30
0.0
 40
1.0
 71
5
  1
6,75
 50
-0.00012952062426076192
  0
POINT
  5
DA
330
CE
100
AcDbEntity
  8
DEFPOINTS
100
AcDbPoint
 10
144.00000904224538
 20
195.00001525877883
 30
0.0
  0
POINT
  5
DB
330
CE
100
AcDbEntity
  8
DEFPOINTS
100
AcDbPoint
 10
144.0
 20
191.00001525878906
 30
0.0
  0
POINT
  5
DC
330
CE
100
AcDbEntity
  8
DEFPOINTS
100
AcDbPoint
 10
150.75
 20
191.0
 30
0.0
  0
ENDBLK
  5
D0
330
CE
100
AcDbEntity
  8
0
100
AcDbBlockEnd
  0
BLOCK
  5
E0
330
DF
100
AcDbEntity
  8
0
100
AcDbBlockBegin
  2
*D11
 70
1
 10
0.0
 20
0.0
 30
0.0
  3
*D11
  1

  0
LINE
  5
E2
330
DF
100
AcDbEntity
  8
0
100
AcDbLine
 10
132.0
 20
343.0000305175781
 30
0.0
 11
132.00002007195795
 21
347.00003051752776
 31
0.0
  0
LINE
  5
E3
330
DF
100
AcDbEntity
  8
0
100
AcDbLine
 10
138.08163452148438
 20
343.0
 30
0.0
 11
138.08165459344235
 21
346.99999999994964
 31
0.0
  0
INSERT
  5
E4
330
DF
100
AcDbEntity
  8
0
100
AcDbBlockReference
  2
_CLOSEDFILLED
 10
132.00002007195795
 20
347.00003051752776
 30
0.0
 50
179.99971249038046
  0
INSERT
  5
E6
330
DF
100
AcDbEntity
  8
0
100
AcDbBlockReference
  2
_CLOSEDFILLED
 10
138.08165459344235
 20
346.99999999994964
 30
0.0
 50
-0.00028750961954909055
  0
LINE
  5
E8
330
DF
100
AcDbEntity
  8
0
100
AcDbLine
 10
133.00002007194536
 20
347.00002549953825
 30
0.0
 11
133.04083733272455
 21
347.00002529471817
 31
0.0
  0
LINE
  5
E9
330
DF
100
AcDbEntity
  8
0
100
AcDbLine
 10
137.04083733267805
 20
347.0000052227602
 30
0.0
 11
137.08165459345494
 21
347.00000501793915
 31
0.0
  0
MTEXT
  5
EA
330
DF
100
AcDbEntity
  8
0
100
AcDbMText
 10
135.04083733270016
 20
347.0000152587387
 30
0.0
 40
1.0
 71
5
  1
6,08
 50
-0.00028750961954909055
  0
POINT
  5
EB
330
DF
100
AcDbEntity
  8
DEFPOINTS
100
AcDbPoint
 10
132.00002007195795
 20
347.00003051752776
 30
0.0
  0
POINT
  5
EC
330
DF
100
AcDbEntity
  8
DEFPOINTS
100
AcDbPoint
 10
132.0
 20
343.0000305175781
 30
0.0
  0
POINT
  5
ED
330
DF
100
AcDbEntity
  8
DEFPOINTS
100
AcDbPoint
 10
138.08163452148438
 20
343.0
 30
0.0
  0
ENDBLK
  5
E1
330
DF
100
AcDbEntity
  8
0
100
AcDbBlockEnd
  0
BLOCK
  5
F1
330
F0
100
AcDbEntity
  8
0
100
AcDbBlockBegin
  2
*D12
 70
1
 10
0.0
 20
0.0
 30
0.0
  3
*D12
  1

  0
LINE
  5
F3
330
F0
100
AcDbEntity
  8
0
100
AcDbLine
 10
177.87754821777344
 20
343.0
 30
0.0
 11
177.87754821777344
 21
347.0
 31
0.0
  0
LINE
  5
F4
330
F0
100
AcDbEntity
  8
0
100
AcDbLine
 10
186.0
 20
343.0
 30
0.0
 11
186.0
 21
347.0
 31
0.0
  0
INSERT
  5
F5
330
F0
100
AcDbEntity
  8
0
100
AcDbBlockReference
  2
_CLOSEDFILLED
 10
177.87754821777344
 20
347.0
 30
0.0
 50
180.0
  0
INSERT
  5
F7
330
F0
100
AcDbEntity
  8
0
100
AcDbBlockReference
  2
_CLOSEDFILLED
 10
186.0
 20
347.0
 30
0.0
  0
LINE
  5
F9
330
F0
100
AcDbEntity
  8
0
100
AcDbLine
 10
178.87754821777344
 20
347.0
 30
0.0
 11
179.93877410888672
 21
347.0
 31
0.0
  0
LINE
  5
FA
330
F0
100
AcDbEntity
  8
0
100
AcDbLine
 10
183.93877410888672
 20
347.0
 30
0.0
 11
185.0
 21
347.0
 31
0.0
  0
MTEXT
  5
FB
330
F0
100
AcDbEntity
  8
0
100
AcDbMText
 10
181.93877410888672
 20
347.0
 30
0.0
 40
1.0
 71
5
  1
8,12
  0
POINT
  5
FC
330
F0
100
AcDbEntity
  8
DEFPOINTS
100
AcDbPoint
 10
177.87754821777344
 20
347.0
 30
0.0
  0
POINT
  5
FD
330
F0
100
AcDbEntity
  8
DEFPOINTS
100
AcDbPoint
 10
177.87754821777344
 20
343.0
 30
0.0
  0
POINT
  5
FE
330
F0
100
AcDbEntity
  8
DEFPOINTS
100
AcDbPoint
 10
186.0
 20
343.0
 30
0.0
  0
ENDBLK
  5
F2
330
F0
100
AcDbEntity
  8
0
100
AcDbBlockEnd
  0
BLOCK
  5
102
330
101
100
AcDbEntity
  8
0
100
AcDbBlockBegin
  2
*D13
 70
1
 10
0.0
 20
0.0
 30
0.0
  3
*D13
  1

  0
LINE
  5
104
330
101
100
AcDbEntity
  8
0
100
AcDbLine
 10
173.99998474121094
 20
185.67453002929688
 30
0.0
 11
171.82988546215685
 21
189.0346891206271
 31
0.0
  0
LINE
  5
105
330
101
100
AcDbEntity
  8
0
100
AcDbLine
 10
180.77723693847656
 20
190.05149841308594
 30
0.0
 11
178.6071376594225
 21
193.41165750441616
 31
0.0
  0
INSERT
  5
106
330
101
100
AcDbEntity
  8
0
100
AcDbBlockReference
  2
_CLOSEDFILLED
 10
171.82988546215685
 20
189.0346891206271
 30
0.0
 50
212.85568022796485
  0
INSERT
  5
108
330
101
100
AcDbEntity
  8
0
100
AcDbBlockReference
  2
_CLOSEDFILLED
 10
178.6071376594225
 20
193.41165750441616
 30
0.0
 50
32.85568022796487
  0
LINE
  5
10A
330
101
100
AcDbEntity
  8
0
100
AcDbLine
 10
172.6699252349894
 20
189.5772139403906
 30
0.0
 11
173.53843201512606
 21
190.13812367299454
 31
0.0
  0
LINE
  5
10B
330
101
100
AcDbEntity
  8
0
100
AcDbLine
 10
176.8985911064547
 20
192.30822295204757
 30
0.0
 11
177.76709788658997
 21
192.86913268465264
 31
0.0
  0
MTEXT
  5
10C
330
101
100
AcDbEntity
  8
0
100
AcDbMText
 10
175.2185115607897
 20
191.22317331252162
 30
0.0
 40
1.0
 71
5
  1
8,07
 50
32.85568022796487
  0
POINT
  5
10D
330
101
100
AcDbEntity
  8
DEFPOINTS
100
AcDbPoint
 10
171.82988546215685
 20
189.0346891206271
 30
0.0
  0
POINT
  5
10E
330
101
100
AcDbEntity
  8
DEFPOINTS
100
AcDbPoint
 10
173.99998474121094
 20
185.67453002929688
 30
0.0
  0
POINT
  5
10F
330
101
100
AcDbEntity
  8
DEFPOINTS
100
AcDbPoint
 10
180.77723693847656
 20
190.05149841308594
 30
0.0
  0
ENDBLK
  5
103
330
101
100
AcDbEntity
  8
0
100
AcDbBlockEnd
  0
ENDSEC
  0
SECTION
  2
ENTITIES
  0
LINE
  5
2F
330
17
100
AcDbEntity
  8
0
100
AcDbLine
 10
46.999996185302734
 20
76.0
 30
0.0
 11
47.0
 21
84.01139831542969
 31
0.0
  0
DIMENSION
  5
30
330
17
100
AcDbEntity
  8
0
100
AcDbDimension
280
0
  2
*D1
  3
Standard
 10
42.99999618530318
 20
76.00000189244747
 30
0.0
 11
42.999998092651815
 21
80.00570105016232
 31
0.0
 70
32
 71
5
  1
<>
100
AcDbAlignedDimension
 13
46.999996185302734
 23
76.0
 33
0.0
 14
47.0
 24
84.01139831542969
 34
0.0
 50
89.99997271811426
100
AcDbRotatedDimension
1001
ACAD
1000
DSTYLE
1002
{
1070
41
1040
1.0
1070
173
1070
0
1070
142
1040
0.0
1070
342
1005
0
1002
}
  0
LINE
  5
44
330
17
100
AcDbEntity
  8
0
100
AcDbLine
 10
47.0
 20
387.8746337890625
 30
0.0
 11
47.0
 21
396.9002990722656
 31
0.0
  0
DIMENSION
  5
45
330
17
100
AcDbEntity
  8
0
100
AcDbDimension
280
0
  2
*D2
  3
Standard
 10
43.0
 20
387.8746337890625
 30
0.0
 11
43.0
 21
392.38746643066406
 31
0.0
 70
32
 71
5
  1
<>
100
AcDbAlignedDimension
 13
47.0
 23
387.8746337890625
 33
0.0
 14
47.0
 24
396.9002990722656
 34
0.0
 50
90.0
100
AcDbRotatedDimension
1001
ACAD
1000
DSTYLE
1002
{
1070
41
1040
1.0
1070
173
1070
0
1070
142
1040
0.0
1070
342
1005
0
1002
}
  0
LINE
  5
55
330
17
100
AcDbEntity
  8
0
100
AcDbLine
 10
165.125
 20
175.0
 30
0.0
 11
174.0
 21
175.00001525878906
 31
0.0
  0
DIMENSION
  5
56
330
17
100
AcDbEntity
  8
0
100
AcDbDimension
280
0
  2
*D3
  3
Standard
 10
165.12499312279928
 20
178.9999999999941
 30
0.0
 11
169.56249312279928
 21
179.00000762938862
 31
0.0
 70
32
 71
5
  1
<>
100
AcDbAlignedDimension
 13
165.125
 23
175.0
 33
0.0
 14
174.0
 24
175.00001525878906
 34
0.0
 50
9.85086438040305e-05
100
AcDbRotatedDimension
1001
ACAD
1000
DSTYLE
1002
{
1070
41
1040
1.0
1070
173
1070
0
1070
142
1040
0.0
1070
342
1005
0
1002
}
  0
LINE
  5
66
330
17
100
AcDbEntity
  8
0
100
AcDbLine
 10
186.00001525878906
 20
175.0
 30
0.0
 11
193.5625
 21
175.0
 31
0.0
  0
DIMENSION
  5
67
330
17
100
AcDbEntity
  8
0
100
AcDbDimension
280
0
  2
*D4
  3
Standard
 10
186.00001525878906
 20
179.0
 30
0.0
 11
189.78125762939453
 21
179.0
 31
0.0
 70
32
 71
5
  1
<>
100
AcDbAlignedDimension
 13
186.00001525878906
 23
175.0
 33
0.0
 14
193.5625
 24
175.0
 34
0.0
 50
0.0
100
AcDbRotatedDimension
1001
ACAD
1000
DSTYLE
1002
{
1070
41
1040
1.0
1070
173
1070
0
1070
142
1040
0.0
1070
342
1005
0
1002
}
  0
LINE
  5
77
330
17
100
AcDbEntity
  8
0
100
AcDbLine
 10
76.0
 20
319.0
 30
0.0
 11
76.0
 21
325.0535583496094
 31
0.0
  0
DIMENSION
  5
78
330
17
100
AcDbEntity
  8
0
100
AcDbDimension
280
0
  2
*D5
  3
Standard
 10
72.0
 20
319.0
 30
0.0
 11
72.0
 21
322.0267791748047
 31
0.0
 70
32
 71
5
  1
<>
100
AcDbAlignedDimension
 13
76.0
 23
319.0
 33
0.0
 14
76.0
 24
325.0535583496094
 34
0.0
 50
90.0
100
AcDbRotatedDimension
1001
ACAD
1000
DSTYLE
1002
{
1070
41
1040
1.0
1070
173
1070
0
1070
142
1040
0.0
1070
342
1005
0
1002
}
  0
LINE
  5
88
330
17
100
AcDbEntity
  8
0
100
AcDbLine
 10
136.11392211914062
 20
241.0
 30
0.0
 11
144.0
 21
241.00001525878906
 31
0.0
  0
DIMENSION
  5
89
330
17
100
AcDbEntity
  8
0
100
AcDbDimension
280
0
  2
*D6
  3
Standard
 10
136.11391437953202
 20
244.99999999999253
 30
0.0
 11
140.0569533199617
 21
245.00000762938706
 31
0.0
 70
32
 71
5
  1
<>
100
AcDbAlignedDimension
 13
136.11392211914062
 23
241.0
 33
0.0
 14
144.0
 24
241.00001525878906
 34
0.0
 50
0.0001108617270801375
100
AcDbRotatedDimension
1001
ACAD
1000
DSTYLE
1002
{
1070
41
1040
1.0
1070
173
1070
0
1070
142
1040
0.0
1070
342
1005
0
1002
}
  0
LINE
  5
99
330
17
100
AcDbEntity
  8
0
100
AcDbLine
 10
173.99998474121094
 20
241.0
 30
0.0
 11
180.67088317871094
 21
241.0
 31
0.0
  0
DIMENSION
  5
9A
330
17
100
AcDbEntity
  8
0
100
AcDbDimension
280
0
  2
*D7
  3
Standard
 10
173.99998474121094
 20
245.0
 30
0.0
 11
177.33543395996094
 21
245.0
 31
0.0
 70
32
 71
5
  1
<>
100
AcDbAlignedDimension
 13
173.99998474121094
 23
241.0
 33
0.0
 14
180.67088317871094
 24
241.0
 34
0.0
 50
0.0
100
AcDbRotatedDimension
1001
ACAD
1000
DSTYLE
1002
{
1070
41
1040
1.0
1070
173
1070
0
1070
142
1040
0.0
1070
342
1005
0
1002
}
  0
LINE
  5
AA
330
17
100
AcDbEntity
  8
0
100
AcDbLine
 10
132.0
 20
319.0
 30
0.0
 11
141.7684326171875
 21
319.0
 31
0.0
  0
DIMENSION
  5
AB
330
17
100
AcDbEntity
  8
0
100
AcDbDimension
280
0
  2
*D8
  3
Standard
 10
132.0
 20
323.0
 30
0.0
 11
136.88421630859375
 21
323.0
 31
0.0
 70
32
 71
5
  1
<>
100
AcDbAlignedDimension
 13
132.0
 23
319.0
 33
0.0
 14
141.7684326171875
 24
319.0
 34
0.0
 50
0.0
100
AcDbRotatedDimension
1001
ACAD
1000
DSTYLE
1002
{
1070
41
1040
1.0
1070
173
1070
0
1070
142
1040
0.0
1070
342
1005
0
1002
}
  0
LINE
  5
BB
330
17
100
AcDbEntity
  8
0
100
AcDbLine
 10
123.07499694824219
 20
191.0
 30
0.0
 11
132.0
 21
191.0
 31
0.0
  0
DIMENSION
  5
BC
330
17
100
AcDbEntity
  8
0
100
AcDbDimension
280
0
  2
*D9
  3
Standard
 10
123.07499694824219
 20
195.0
 30
0.0
 11
127.5374984741211
 21
195.0
 31
0.0
 70
32
 71
5
  1
<>
100
AcDbAlignedDimension
 13
123.07499694824219
 23
191.0
 33
0.0
 14
132.0
 24
191.0
 34
0.0
 50
0.0
100
AcDbRotatedDimension
1001
ACAD
1000
DSTYLE
1002
{
1070
41
1040
1.0
1070
173
1070
0
1070
142
1040
0.0
1070
342
1005
0
1002
}
  0
LINE
  5
CC
330
17
100
AcDbEntity
  8
0
100
AcDbLine
 10
144.0
 20
191.00001525878906
 30
0.0
 11
150.75
 21
191.0
 31
0.0
  0
DIMENSION
  5
CD
330
17
100
AcDbEntity
  8
0
100
AcDbDimension
280
0
  2
*D10
  3
Standard
 10
144.00000904224538
 20
195.00001525877883
 30
0.0
 11
147.37500904224538
 21
195.0000076293843
 31
0.0
 70
32
 71
5
  1
<>
100
AcDbAlignedDimension
 13
144.0
 23
191.00001525878906
 33
0.0
 14
150.75
 24
191.0
 34
0.0
 50
-0.00012952062426076192
100
AcDbRotatedDimension
1001
ACAD
1000
DSTYLE
1002
{
1070
41
1040
1.0
1070
173
1070
0
1070
142
1040
0.0
1070
342
1005
0
1002
}
  0
LINE
  5
DD
330
17
100
AcDbEntity
  8
0
100
AcDbLine
 10
132.0
 20
343.0000305175781
 30
0.0
 11
138.08163452148438
 21
343.0
 31
0.0
  0
DIMENSION
  5
DE
330
17
100
AcDbEntity
  8
0
100
AcDbDimension
280
0
  2
*D11
  3
Standard
 10
132.00002007195795
 20
347.00003051752776
 30
0.0
 11
135.04083733270016
 21
347.0000152587387
 31
0.0
 70
32
 71
5
  1
<>
100
AcDbAlignedDimension
 13
132.0
 23
343.0000305175781
 33
0.0
 14
138.08163452148438
 24
343.0
 34
0.0
 50
-0.00028750961954909055
100
AcDbRotatedDimension
1001
ACAD
1000
DSTYLE
1002
{
1070
41
1040
1.0
1070
173
1070
0
1070
142
1040
0.0
1070
342
1005
0
1002
}
  0
LINE
  5
EE
330
17
100
AcDbEntity
  8
0
100
AcDbLine
 10
177.87754821777344
 20
343.0
 30
0.0
 11
186.0
 21
343.0
 31
0.0
  0
DIMENSION
  5
EF
330
17
100
AcDbEntity
  8
0
100
AcDbDimension
280
0
  2
*D12
  3
Standard
 10
177.87754821777344
 20
347.0
 30
0.0
 11
181.93877410888672
 21
347.0
 31
0.0
 70
32
 71
5
  1
<>
100
AcDbAlignedDimension
 13
177.87754821777344
 23
343.0
 33
0.0
 14
186.0
 24
343.0
 34
0.0
 50
0.0
100
AcDbRotatedDimension
1001
ACAD
1000
DSTYLE
1002
{
1070
41
1040
1.0
1070
173
1070
0
1070
142
1040
0.0
1070
342
1005
0
1002
}
  0
LINE
  5
FF
330
17
100
AcDbEntity
  8
0
100
AcDbLine
 10
173.99998474121094
 20
185.67453002929688
 30
0.0
 11
180.77723693847656
 21
190.05149841308594
 31
0.0
  0
DIMENSION
  5
100
330
17
100
AcDbEntity
  8
0
100
AcDbDimension
280
0
  2
*D13
  3
Standard
 10
171.82988546215685
 20
189.0346891206271
 30
0.0
 11
175.2185115607897
 21
191.22317331252162
 31
0.0
 70
32
 71
5
  1
<>
100
AcDbAlignedDimension
 13
173.99998474121094
 23
185.67453002929688
 33
0.0
 14
180.77723693847656
 24
190.05149841308594
 34
0.0
 50
32.85568022796487
100
AcDbRotatedDimension
1001
ACAD
1000
DSTYLE
1002
{
1070
41
1040
1.0
1070
173
1070
0
1070
142
1040
0.0
1070
342
1005
0
1002
}
  0
ENDSEC
  0
SECTION
  2
OBJECTS
  0
DICTIONARY
  5
A
330
0
100
AcDbDictionary
281
1
  3
ACAD_COLOR
350
B
  3
ACAD_GROUP
350
C
  3
ACAD_LAYOUT
350
D
  3
ACAD_MATERIAL
350
E
  3
ACAD_MLEADERSTYLE
350
F
  3
ACAD_MLINESTYLE
350
10
  3
ACAD_PLOTSETTINGS
350
11
  3
ACAD_PLOTSTYLENAME
350
12
  3
ACAD_SCALELIST
350
14
  3
ACAD_TABLESTYLE
350
15
  3
ACAD_VISUALSTYLE
350
16
  3
EZDXF_META
350
2D
  0
DICTIONARY
  5
B
330
A
100
AcDbDictionary
281
1
  0
DICTIONARY
  5
C
330
A
100
AcDbDictionary
281
1
  0
DICTIONARY
  5
D
330
A
100
AcDbDictionary
281
1
  3
Model
350
1A
  3
Layout1
350
1E
  0
DICTIONARY
  5
E
330
A
100
AcDbDictionary
281
1
  3
ByBlock
350
1F
  3
ByLayer
350
20
  3
Global
350
21
  0
DICTIONARY
  5
F
330
A
100
AcDbDictionary
281
1
  3
Standard
350
2C
  0
DICTIONARY
  5
10
330
A
100
AcDbDictionary
281
1
  3
Standard
350
22
  0
DICTIONARY
  5
11
330
A
100
AcDbDictionary
281
1
  0
ACDBDICTIONARYWDFLT
  5
12
330
A
100
AcDbDictionary
281
1
  3
Normal
350
13
100
AcDbDictionaryWithDefault
340
13
  0
ACDBPLACEHOLDER
  5
13
330
12
  0
DICTIONARY
  5
14
330
A
100
AcDbDictionary
281
1
  0
DICTIONARY
  5
15
330
A
100
AcDbDictionary
281
1
  0
DICTIONARY
  5
16
330
A
100
AcDbDictionary
281
1
  0
LAYOUT
  5
1A
330
D
100
AcDbPlotSettings
  1

  2
Adobe PDF
  4
A3
  6

 40
7.5
 41
20.0
 42
7.5
 43
20.0
 44
420.0
 45
297.0
 46
0.0
 47
0.0
 48
0.0
 49
0.0
140
0.0
141
0.0
142
1.0
143
1.0
 70
1024
 72
1
 73
1
 74
5
  7

 75
16
 76
0
 77
2
 78
300
147
1.0
148
0.0
149
0.0
100
AcDbLayout
  1
Model
 70
1
 71
0
 10
0.0
 20
0.0
 11
420.0
 21
297.0
 12
0.0
 22
0.0
 32
0.0
 14
1e+20
 24
1e+20
 34
1e+20
 15
-1e+20
 25
-1e+20
 35
-1e+20
146
0.0
 13
0.0
 23
0.0
 33
0.0
 16
1.0
 26
0.0
 36
0.0
 17
0.0
 27
1.0
 37
0.0
 76
1
330
17
  0
LAYOUT
  5
1E
330
D
100
AcDbPlotSettings
  1

  2
Adobe PDF
  4
A3
  6

 40
7.5
 41
20.0
 42
7.5
 43
20.0
 44
420.0
 45
297.0
 46
0.0
 47
0.0
 48
0.0
 49
0.0
140
0.0
141
0.0
142
1.0
143
1.0
 70
0
 72
1
 73
1
 74
5
  7

 75
16
 76
0
 77
2
 78
300
147
1.0
148
0.0
149
0.0
100
AcDbLayout
  1
Layout1
 70
1
 71
1
 10
0.0
 20
0.0
 11
420.0
 21
297.0
 12
0.0
 22
0.0
 32
0.0
 14
1e+20
 24
1e+20
 34
1e+20
 15
-1e+20
 25
-1e+20
 35
-1e+20
146
0.0
 13
0.0
 23
0.0
 33
0.0
 16
1.0
 26
0.0
 36
0.0
 17
0.0
 27
1.0
 37
0.0
 76
1
330
1B
  0
MATERIAL
  5
1F
102
{ACAD_REACTORS
330
E
102
}
330
E
100
AcDbMaterial
  1
ByBlock
  2

 70
0
 40
1.0
 71
1
 41
1.0
 91
-1023410177
 42
1.0
 72
1
  3

 73
1
 74
1
 75
1
 44
0.5
 73
0
 45
1.0
 46
1.0
 77
1
  4

 78
1
 79
1
170
1
 48
1.0
171
1
  6

172
1
173
1
174
1
140
1.0
141
1.0
175
1
  7

176
1
177
1
178
1
143
1.0
179
1
  8

270
1
271
1
272
1
145
1.0
146
1.0
273
1
  9

274
1
275
1
276
1
 42
1.0
 72
1
  3

 73
1
 74
1
 75
1
 94
63
  0
MATERIAL
  5
20
102
{ACAD_REACTORS
330
E
102
}
330
E
100
AcDbMaterial
  1
ByLayer
  2

 70
0
 40
1.0
 71
1
 41
1.0
 91
-1023410177
 42
1.0
 72
1
  3

 73
1
 74
1
 75
1
 44
0.5
 73
0
 45
1.0
 46
1.0
 77
1
  4

 78
1
 79
1
170
1
 48
1.0
171
1
  6

172
1
173
1
174
1
140
1.0
141
1.0
175
1
  7

176
1
177
1
178
1
143
1.0
179
1
  8

270
1
271
1
272
1
145
1.0
146
1.0
273
1
  9

274
1
275
1
276
1
 42
1.0
 72
1
  3

 73
1
 74
1
 75
1
 94
63
  0
MATERIAL
  5
21
102
{ACAD_REACTORS
330
E
102
}
330
E
100
AcDbMaterial
  1
Global
  2

 70
0
 40
1.0
 71
1
 41
1.0
 91
-1023410177
 42
1.0
 72
1
  3

 73
1
 74
1
 75
1
 44
0.5
 73
0
 45
1.0
 46
1.0
 77
1
  4

 78
1
 79
1
170
1
 48
1.0
171
1
  6

172
1
173
1
174
1
140
1.0
141
1.0
175
1
  7

176
1
177
1
178
1
143
1.0
179
1
  8

270
1
271
1
272
1
145
1.0
146
1.0
273
1
  9

274
1
275
1
276
1
 42
1.0
 72
1
  3

 73
1
 74
1
 75
1
 94
63
  0
MLINESTYLE
  5
22
102
{ACAD_REACTORS
330
10
102
}
330
10
100
AcDbMlineStyle
  2
Standard
 70
0
  3

 62
256
 51
90.0
 52
90.0
 71
2
 49
0.5
 62
256
  6
BYLAYER
 49
-0.5
 62
256
  6
BYLAYER
  0
MLEADERSTYLE
  5
2C
102
{ACAD_REACTORS
330
F
102
}
330
F
100
AcDbMLeaderStyle
179
2
170
2
171
1
172
0
 90
2
 40
0.0
 41
0.0
173
1
 91
-1056964608
 92
-2
290
1
 42
2.0
291
1
 43
8.0
  3
Standard
 44
4.0
300

342
29
174
1
175
1
176
0
178
1
 93
-1056964608
 45
4.0
292
0
297
0
 46
4.0
 94
-1056964608
 47
1.0
 49
1.0
140
1.0
294
1
141
0.0
177
0
142
1.0
295
0
296
0
143
3.75
271
0
272
9
273
9
  0
DICTIONARY
  5
2D
330
A
100
AcDbDictionary
280
1
281
1
  3
CREATED_BY_EZDXF
350
2E
  3
WRITTEN_BY_EZDXF
350
112
  0
DICTIONARYVAR
  5
2E
330
2D
100
DictionaryVariables
280
0
  1
0.17.1 @ 2021-12-02T08:50:49.377514+00:00
  0
DICTIONARYVAR
  5
112
330
2D
100
DictionaryVariables
280
0
  1
0.17.1 @ 2021-12-02T08:50:49.441768+00:00
  0
ENDSEC
  0
EOF
